<?xml version="1.0" encoding="UTF-8" standalone="no"?>
<!-- Created with Inkscape (http://www.inkscape.org/) -->

<svg
   xmlns:dc="http://purl.org/dc/elements/1.1/"
   xmlns:cc="http://creativecommons.org/ns#"
   xmlns:rdf="http://www.w3.org/1999/02/22-rdf-syntax-ns#"
   xmlns:svg="http://www.w3.org/2000/svg"
   xmlns="http://www.w3.org/2000/svg"
   xmlns:sodipodi="http://sodipodi.sourceforge.net/DTD/sodipodi-0.dtd"
   xmlns:inkscape="http://www.inkscape.org/namespaces/inkscape"
   width="995mm"
   height="600mm"
   viewBox="0 0 995 600"
   version="1.1"
   id="svg8"
   inkscape:version="0.92.3 (2405546, 2018-03-11)"
   sodipodi:docname="kyori.svg">
  <defs
     id="defs2" />
  <sodipodi:namedview
     id="base"
     pagecolor="#ffffff"
     bordercolor="#666666"
     borderopacity="1.0"
     inkscape:pageopacity="0.0"
     inkscape:pageshadow="2"
     inkscape:zoom="0.19"
     inkscape:cx="759.01244"
     inkscape:cy="796.7436"
     inkscape:document-units="mm"
     inkscape:current-layer="layer1"
     showgrid="false"
     inkscape:window-width="1920"
     inkscape:window-height="1017"
     inkscape:window-x="-8"
     inkscape:window-y="-8"
     inkscape:window-maximized="1" />
  <metadata
     id="metadata5">
    <rdf:RDF>
      <cc:Work
         rdf:about="">
        <dc:format>image/svg+xml</dc:format>
        <dc:type
           rdf:resource="http://purl.org/dc/dcmitype/StillImage" />
        <dc:title></dc:title>
      </cc:Work>
    </rdf:RDF>
  </metadata>
  <g
     inkscape:label="Layer 1"
     inkscape:groupmode="layer"
     id="layer1"
     transform="translate(0,303)">
    <path
       style="fill:#000000;stroke-width:1.03890085"
       d="M -15.789062 -11.230469 L -15.789062 2278.2422 L 3773.6836 2278.2422 L 3773.6836 -11.230469 L -15.789062 -11.230469 z M 1975.2734 836.08203 C 2041.6797 836.08203 2093.5467 853.22743 2130.873 887.51562 C 2168.4164 921.80382 2187.1875 968.13498 2187.1875 1026.5117 C 2187.1875 1066.2253 2180.4607 1105.2878 2167.0059 1143.6992 C 2153.551 1182.1107 2134.0197 1215.6393 2108.4121 1244.2852 C 2080.4173 1275.5352 2047.7561 1299.5165 2010.4297 1316.2266 C 1973.1033 1332.7196 1930.1345 1340.9648 1881.5234 1340.9648 C 1815.3342 1340.9648 1763.4692 1323.9306 1725.9258 1289.8594 C 1688.5994 1255.5712 1669.9355 1208.4779 1669.9355 1148.582 C 1669.9355 1106.4813 1677.097 1066.4423 1691.4199 1028.4648 C 1705.7428 990.48741 1726.2507 957.06792 1752.9434 928.20508 C 1778.985 900.21029 1811.2116 877.85851 1849.623 861.14844 C 1888.0345 844.43837 1929.9175 836.08203 1975.2734 836.08203 z M 757.17578 846.17383 L 882.82617 846.17383 L 833.67188 1059.7148 L 1052.4219 846.17383 L 1200.8594 846.17383 L 956.06836 1071.7598 L 1103.5293 1330.875 L 965.83398 1330.875 L 856.78516 1134.5859 L 806.32812 1178.5312 L 771.17188 1330.875 L 645.52148 1330.875 L 757.17578 846.17383 z M 1213.5547 846.17383 L 1347.3438 846.17383 L 1409.5195 1035.9531 L 1554.375 846.17383 L 1698.9062 846.17383 L 1451.8359 1143.375 L 1408.543 1330.875 L 1282.8906 1330.875 L 1324.8828 1149.2344 L 1213.5547 846.17383 z M 2329.1152 846.17383 L 2518.2422 846.17383 C 2577.487 846.17383 2623.2782 856.26497 2655.6133 876.44727 C 2687.9484 896.41254 2704.1152 927.0115 2704.1152 968.24414 C 2704.1152 1007.0896 2692.2873 1039.7509 2668.6328 1066.2266 C 2644.9783 1092.7023 2612.8609 1112.6662 2572.2793 1126.1211 L 2684.2578 1330.875 L 2544.6094 1330.875 L 2453.4648 1153.1406 L 2383.1523 1153.1406 L 2342.1367 1330.875 L 2217.1367 1330.875 L 2329.1152 846.17383 z M 2829.7656 846.17383 L 3113.6211 846.17383 L 3093.7637 932.11133 L 3014.6621 932.11133 L 2942.3965 1244.9375 L 3021.498 1244.9375 L 3001.6406 1330.875 L 2717.7871 1330.875 L 2737.6445 1244.9375 L 2816.7461 1244.9375 L 2889.0117 932.11133 L 2809.9102 932.11133 L 2829.7656 846.17383 z M 1959.6484 925.60156 C 1939.4661 925.60156 1920.1532 930.26606 1901.707 939.59766 C 1883.4779 948.71224 1866.658 962.70964 1851.25 981.58984 C 1836.276 999.602 1824.2318 1022.0629 1815.1172 1048.9727 C 1806.0026 1075.6654 1801.4453 1105.7224 1801.4453 1139.1426 C 1801.4453 1176.252 1809.9089 1204.2467 1826.8359 1223.127 C 1843.98 1242.0072 1867.6359 1251.4473 1897.8008 1251.4473 C 1918.6341 1251.4473 1938.7072 1246.3481 1958.0215 1236.1484 C 1977.3357 1225.7318 1994.1536 1210.9742 2008.4766 1191.877 C 2023.2335 1172.5627 2034.7359 1150.2109 2042.9824 1124.8203 C 2051.446 1099.2127 2055.6777 1069.8066 2055.6777 1036.6035 C 2055.6777 1001.8813 2047.3234 974.75391 2030.6133 955.22266 C 2014.1202 935.47439 1990.4644 925.60156 1959.6484 925.60156 z M 2433.6074 935.36719 L 2403.334 1065.9004 L 2464.8574 1065.9004 C 2498.0605 1065.9004 2523.7767 1059.1736 2542.0059 1045.7188 C 2560.235 1032.0469 2569.3496 1013.1667 2569.3496 989.07812 C 2569.3496 969.54688 2563.0556 955.76584 2550.4688 947.73633 C 2538.099 939.4898 2519.7626 935.36719 2495.457 935.36719 L 2433.6074 935.36719 z "
       transform="matrix(0.26458333,0,0,0.26458333,0,-303)"
       id="rect12" />
  </g>
</svg>
